<svg xmlns="http://www.w3.org/2000/svg" width="473" height="473" viewBox="0 0 473 473">
  <g id="logo" data-name="logo" fill="#fff">
    <path d="M 236.5001983642578 472.5003662109375 C 220.4861907958984 472.5003662109375 204.4837799072266 470.8871459960938 188.9373168945312 467.7055053710938 C 173.7884368896484 464.60595703125 158.8841400146484 459.9796142578125 144.6384887695312 453.9548950195312 C 130.6563720703125 448.0409545898438 117.1687850952148 440.7201843261719 104.5503158569336 432.1958923339844 C 92.05296325683594 423.7520751953125 80.30166625976562 414.05615234375 69.62290191650391 403.3775024414062 C 58.94461059570312 392.6991271972656 49.2486686706543 380.9478454589844 40.80449295043945 368.4500732421875 C 32.28037643432617 355.8319091796875 24.95960998535156 342.3443298339844 19.04555130004883 328.3619689941406 C 13.02072811126709 314.1160278320312 8.394374847412109 299.211669921875 5.294904232025146 284.0630798339844 C 2.113257169723511 268.5166015625 0.5000218749046326 252.5142059326172 0.5000218749046326 236.5001983642578 C 0.5000218749046326 220.4861907958984 2.113257169723511 204.4837799072266 5.294904232025146 188.9373168945312 C 8.394374847412109 173.7886047363281 13.02072811126709 158.8843231201172 19.04555130004883 144.6384887695312 C 24.95955085754395 130.65625 32.28031539916992 117.1686096191406 40.80449295043945 104.5503158569336 C 49.24849319458008 92.05278778076172 58.94443511962891 80.30149078369141 69.62290191650391 69.62290191650391 C 80.30149078369141 58.94443511962891 92.05278778076172 49.24849319458008 104.5503768920898 40.80449295043945 C 117.1686096191406 32.28031539916992 130.65625 24.95955085754395 144.6384887695312 19.04555130004883 C 158.8843231201172 13.02072811126709 173.7886047363281 8.394374847412109 188.9373168945312 5.294904232025146 C 204.4837799072266 2.113257169723511 220.4861907958984 0.5000218749046326 236.5001983642578 0.5000218749046326 C 252.5142059326172 0.5000218749046326 268.5166015625 2.113257169723511 284.0630798339844 5.294904232025146 C 299.211669921875 8.394374847412109 314.1160278320312 13.02072811126709 328.3619689941406 19.04555130004883 C 342.3443298339844 24.95960998535156 355.8319091796875 32.28037643432617 368.4501342773438 40.80449295043945 C 380.9478454589844 49.2486686706543 392.6991271972656 58.94461059570312 403.3775024414062 69.62290191650391 C 414.05615234375 80.30166625976562 423.7520751953125 92.05296325683594 432.1958923339844 104.5503768920898 C 440.7201843261719 117.1687850952148 448.0409545898438 130.6563720703125 453.9548950195312 144.6384887695312 C 459.9796142578125 158.8841400146484 464.60595703125 173.7884368896484 467.7055053710938 188.9373168945312 C 470.8871459960938 204.4837799072266 472.5003662109375 220.4861907958984 472.5003662109375 236.5001983642578 C 472.5003662109375 252.5142059326172 470.8871459960938 268.5166015625 467.7055053710938 284.0630798339844 C 464.6060180664062 299.2119140625 459.9796752929688 314.1162109375 453.9548950195312 328.3619689941406 C 448.0408935546875 342.3441467285156 440.7201538085938 355.831787109375 432.1958923339844 368.4501342773438 C 423.7518920898438 380.9476623535156 414.0560302734375 392.698974609375 403.3775024414062 403.3775024414062 C 392.698974609375 414.0560302734375 380.9476623535156 423.7518920898438 368.4500732421875 432.1958923339844 C 355.831787109375 440.7201538085938 342.3441467285156 448.0408935546875 328.3619689941406 453.9548950195312 C 314.1162109375 459.9796752929688 299.2119140625 464.6060180664062 284.0630798339844 467.7055053710938 C 268.5166015625 470.8871459960938 252.5142059326172 472.5003662109375 236.5001983642578 472.5003662109375 Z M 236.9997253417969 31.50037574768066 C 223.0571441650391 31.50037574768066 209.1232604980469 32.90149307250977 195.585205078125 35.6649055480957 C 182.3882598876953 38.35931777954102 169.4098510742188 42.37825775146484 157.0104370117188 47.61013793945312 C 144.8324279785156 52.74861145019531 133.0880737304688 59.1077880859375 122.1034317016602 66.51113891601562 C 111.2246704101562 73.84184265136719 100.9920806884766 82.2635498046875 91.68990325927734 91.54231262207031 C 82.38913726806641 100.8214340209961 73.94678497314453 111.0291366577148 66.59731292724609 121.8820190429688 C 59.17431640625 132.8420257568359 52.79949188232422 144.5580291748047 47.65008163452148 156.7045440673828 C 42.40378570556641 169.0774993896484 38.37508010864258 182.0245513916016 35.67578506469727 195.1860198974609 C 32.90519714355469 208.6909637451172 31.50037574768066 222.5910797119141 31.50037574768066 236.5001983642578 C 31.50037574768066 250.4093780517578 32.90519714355469 264.3094787597656 35.67578506469727 277.8143615722656 C 38.37466812133789 290.9740905761719 42.40343475341797 303.921142578125 47.65008163452148 316.2958984375 C 52.79961013793945 328.4425659179688 59.17437362670898 340.1585388183594 66.59731292724609 351.1184387207031 C 73.94731903076172 361.9720153808594 82.38967132568359 372.1795043945312 91.68990325927734 381.4571838378906 C 100.9940795898438 390.7379150390625 111.2266693115234 399.159912109375 122.1034927368164 406.4892578125 C 133.0883178710938 413.8927307128906 144.8326721191406 420.251953125 157.0104370117188 425.3902587890625 C 169.4098510742188 430.6221313476562 182.3882598876953 434.6410827636719 195.585205078125 437.3354797363281 C 209.1232604980469 440.0989074707031 223.0571441650391 441.5000305175781 236.9997253417969 441.5000305175781 C 250.9423217773438 441.5000305175781 264.8761291503906 440.0989074707031 278.4141845703125 437.3354797363281 C 291.611083984375 434.6410827636719 304.5894775390625 430.6221313476562 316.9889526367188 425.3902587890625 C 329.1683654785156 420.2512512207031 340.9130859375 413.8920288085938 351.8969116210938 406.4892578125 C 362.7794799804688 399.1544189453125 373.0117797851562 390.732421875 382.3095397949219 381.4571838378906 C 391.6086730957031 372.1805419921875 400.0513305664062 361.97314453125 407.4030151367188 351.1184387207031 C 414.8234252929688 340.1623229980469 421.1982116699219 328.4463195800781 426.3502502441406 316.2958984375 C 431.5969543457031 303.9208374023438 435.6256713867188 290.9737854003906 438.3245544433594 277.8143615722656 C 441.0950927734375 264.3096618652344 442.4999084472656 250.4096069335938 442.4999084472656 236.5001983642578 C 442.4999084472656 222.5908508300781 441.0950927734375 208.6907806396484 438.3245544433594 195.1860198974609 C 435.6253051757812 182.0247802734375 431.5965576171875 169.0777282714844 426.3502502441406 156.7045440673828 C 421.1983032226562 144.5543212890625 414.8235473632812 132.8383178710938 407.4030151367188 121.881965637207 C 400.0498352050781 111.0251388549805 391.6072082519531 100.8174362182617 382.3095397949219 91.54231262207031 C 373.0108337402344 82.26613616943359 362.778564453125 73.84443664550781 351.8968505859375 66.51113891601562 C 340.913330078125 59.10849380493164 329.1686096191406 52.7492561340332 316.9889526367188 47.61013793945312 C 304.5894775390625 42.37825775146484 291.611083984375 38.35931777954102 278.4141845703125 35.6649055480957 C 264.8761291503906 32.90149307250977 250.9423217773438 31.50037574768066 236.9997253417969 31.50037574768066 Z M 252.0000152587891 396.4999084472656 L 221.0004272460938 396.4999084472656 C 217.127197265625 396.4999084472656 213.48583984375 394.9916076660156 210.7471466064453 392.2528991699219 C 208.0083770751953 389.5141906738281 206.5000762939453 385.8728332519531 206.5000762939453 381.9996032714844 L 206.5000762939453 267.0003051757812 L 206.5000762939453 266.5003051757812 L 206.0000762939453 266.5003051757812 L 92.99972534179688 266.5003051757812 C 88.59243011474609 266.5003051757812 84.44890594482422 264.7840270996094 81.33243560791016 261.66748046875 C 78.21590423583984 258.551025390625 76.49961090087891 254.4074859619141 76.49961090087891 250.0001983642578 L 76.49961090087891 224.0000762939453 C 76.49961090087891 219.5927886962891 78.21590423583984 215.4493103027344 81.33243560791016 212.3328399658203 C 84.44890594482422 209.21630859375 88.59243011474609 207.5000152587891 92.99972534179688 207.5000152587891 L 206.0000762939453 207.5000152587891 L 206.5000762939453 207.5000152587891 L 206.5000762939453 207.0000152587891 L 206.5000762939453 90.99990081787109 C 206.5000762939453 87.12672424316406 208.0083770751953 83.48537445068359 210.7471466064453 80.74661254882812 C 213.48583984375 78.00790405273438 217.127197265625 76.49961090087891 221.0004272460938 76.49961090087891 L 252.0000152587891 76.49961090087891 C 255.8731994628906 76.49961090087891 259.5145568847656 78.00790405273438 262.2533264160156 80.74661254882812 C 264.9920349121094 83.48537445068359 266.5003051757812 87.12672424316406 266.5003051757812 90.99990081787109 L 266.5003051757812 207.0000152587891 L 266.5003051757812 207.5000152587891 L 267.0003051757812 207.5000152587891 L 379.9998474121094 207.5000152587891 C 384.4071350097656 207.5000152587891 388.5505981445312 209.21630859375 391.6670837402344 212.3328399658203 C 394.7835998535156 215.4493103027344 396.4999084472656 219.5927886962891 396.4999084472656 224.0000762939453 L 396.4999084472656 250.0001983642578 C 396.4999084472656 254.4074859619141 394.7835998535156 258.551025390625 391.6670837402344 261.66748046875 C 388.5505981445312 264.7840270996094 384.4071350097656 266.5003051757812 379.9998474121094 266.5003051757812 L 267.0003051757812 266.5003051757812 L 266.5003051757812 266.5003051757812 L 266.5003051757812 267.0003051757812 L 266.5003051757812 381.9996032714844 C 266.5003051757812 385.8728332519531 264.9920349121094 389.5141906738281 262.2533264160156 392.2528991699219 C 259.5145568847656 394.9916076660156 255.8731994628906 396.4999084472656 252.0000152587891 396.4999084472656 Z" stroke="none"/>
    <path d="M 236.5001983642578 472.0003662109375 C 252.4805450439453 472.0003662109375 268.4493103027344 470.3905639648438 283.9628601074219 467.2156066894531 C 299.0793151855469 464.1227722167969 313.9517822265625 459.5063171386719 328.1672058105469 453.4944458007812 C 342.1196594238281 447.5929565429688 355.57861328125 440.2877197265625 368.1701965332031 431.7816162109375 C 380.6413879394531 423.3554382324219 392.3678894042969 413.6799621582031 403.0238952636719 403.0238952636719 C 413.6799621582031 392.3678894042969 423.3554382324219 380.6413879394531 431.7815551757812 368.1702575683594 C 440.2877197265625 355.57861328125 447.5929565429688 342.1196594238281 453.4944458007812 328.1672058105469 C 459.5063171386719 313.9517822265625 464.1227722167969 299.0793151855469 467.2156066894531 283.9628601074219 C 470.3905639648438 268.4493103027344 472.0003662109375 252.4805450439453 472.0003662109375 236.5001983642578 C 472.0003662109375 220.5198516845703 470.3905639648438 204.5510864257812 467.2156066894531 189.0375518798828 C 464.1227416992188 173.9209594726562 459.5062561035156 159.0484924316406 453.4944458007812 144.833251953125 C 447.5930786132812 130.8809051513672 440.2877807617188 117.4219055175781 431.7816162109375 104.8302536010742 C 423.3556213378906 92.35926055908203 413.6800842285156 80.63272857666016 403.0238952636719 69.97649383544922 C 392.3680725097656 59.32061004638672 380.6415405273438 49.64513778686523 368.1702575683594 41.21884536743164 C 355.5787963867188 32.71278762817383 342.1197814941406 25.40755081176758 328.1672058105469 19.50602149963379 C 313.9515991210938 13.49408054351807 299.0791320800781 8.877610206604004 283.9628601074219 5.784786701202393 C 268.4493103027344 2.609845399856567 252.4805450439453 1.000021934509277 236.5001983642578 1.000021934509277 C 220.5198516845703 1.000021934509277 204.5510864257812 2.609845399856567 189.0375518798828 5.784786701202393 C 173.921142578125 8.877610206604004 159.0486755371094 13.49413967132568 144.833251953125 19.50602149963379 C 130.8807220458984 25.40749168395996 117.4217834472656 32.71272659301758 104.8302536010742 41.21878814697266 C 92.35907745361328 49.64496231079102 80.63255310058594 59.32049179077148 69.97649383544922 69.97649383544922 C 59.32049179077148 80.63255310058594 49.64496231079102 92.35907745361328 41.21884536743164 104.8302001953125 C 32.71272659301758 117.4217834472656 25.40749168395996 130.8807220458984 19.50602149963379 144.833251953125 C 13.49413967132568 159.0486755371094 8.877610206604004 173.921142578125 5.784786701202393 189.0375518798828 C 2.609845399856567 204.5510864257812 1.000021934509277 220.5198516845703 1.000021934509277 236.5001983642578 C 1.000021934509277 252.4805450439453 2.609845399856567 268.4493103027344 5.784786701202393 283.9628601074219 C 8.877610206604004 299.0791320800781 13.49408054351807 313.9515991210938 19.50602149963379 328.1672058105469 C 25.40755081176758 342.1197814941406 32.71278762817383 355.5787963867188 41.21878814697266 368.1701965332031 C 49.64513778686523 380.6415405273438 59.32061004638672 392.3680725097656 69.97649383544922 403.0238952636719 C 80.63272857666016 413.6800842285156 92.35926055908203 423.3556213378906 104.8302001953125 431.7815551757812 C 117.4219055175781 440.2877807617188 130.8809051513672 447.5930786132812 144.833251953125 453.4944458007812 C 159.0484924316406 459.5062561035156 173.9209594726562 464.1227416992188 189.0375518798828 467.2156066894531 C 204.5510864257812 470.3905639648438 220.5198516845703 472.0003662109375 236.5001983642578 472.0003662109375 M 236.9997253417969 31.00037574768066 C 250.9758453369141 31.00037574768066 264.9433288574219 32.40490341186523 278.5142517089844 35.17502212524414 C 291.7433776855469 37.87602233886719 304.7534790039062 41.90478515625 317.1833801269531 47.14943313598633 C 329.3926696777344 52.30113983154297 341.166015625 58.6759033203125 352.17626953125 66.09648895263672 C 363.0843811035156 73.44760894775391 373.3414306640625 81.88972473144531 382.6626586914062 91.18837738037109 C 391.98291015625 100.4859008789062 400.4460144042969 110.7184371948242 407.8170166015625 121.6016082763672 C 415.2556762695312 132.5846710205078 421.6460266113281 144.3293151855469 426.810546875 156.5093688964844 C 432.0698547363281 168.9130249023438 436.1084899902344 181.8919677734375 438.8143310546875 195.0855560302734 C 441.5916748046875 208.6232604980469 442.9999084472656 222.5572052001953 442.9999084472656 236.5001983642578 C 442.9999084472656 250.4432525634766 441.5916748046875 264.377197265625 438.8143310546875 277.914794921875 C 436.1088562011719 291.1066589355469 432.0701904296875 304.0855407714844 426.810546875 316.4910888671875 C 421.6459045410156 328.6712646484375 415.2555541992188 340.4158935546875 407.8170166015625 351.3987731933594 C 400.4474792480469 362.2799072265625 391.9843139648438 372.5120849609375 382.6626586914062 381.8111267089844 C 373.3423767089844 391.1089172363281 363.0853271484375 399.55126953125 352.1763305664062 406.9038391113281 C 341.165771484375 414.3246765136719 329.3924255371094 420.6994323730469 317.1833801269531 425.8509521484375 C 304.7534790039062 431.0956115722656 291.7433776855469 435.1243896484375 278.5141906738281 437.825439453125 C 264.9433288574219 440.5954895019531 250.9758453369141 442.0000305175781 236.9997253417969 442.0000305175781 C 223.0236053466797 442.0000305175781 209.0560760498047 440.5954895019531 195.4851379394531 437.8253784179688 C 182.2560272216797 435.1243896484375 169.245849609375 431.0956115722656 156.8160247802734 425.8509521484375 C 144.6086120605469 420.7000732421875 132.8356170654297 414.3253784179688 121.8240814208984 406.9039001464844 C 110.9209060668945 399.5567932128906 100.6634902954102 391.1143798828125 91.33678436279297 381.8111267089844 C 82.01402282714844 372.5109558105469 73.55113983154297 362.2787170410156 66.18337249755859 351.3987731933594 C 58.74225616455078 340.4122009277344 52.35190582275391 328.66748046875 47.18978500366211 316.4910888671875 C 41.93019866943359 304.0858459472656 37.89155197143555 291.1069030761719 35.1860237121582 277.9149169921875 C 32.40861129760742 264.3770141601562 31.00037574768066 250.4430847167969 31.00037574768066 236.5001983642578 C 31.00037574768066 222.557373046875 32.40861129760742 208.6234283447266 35.1860237121582 195.0856170654297 C 37.89190292358398 181.8916625976562 41.93054962158203 168.9127349853516 47.18972778320312 156.5094299316406 C 52.35178756713867 144.3330841064453 58.74213790893555 132.5884399414062 66.18331909179688 121.6016693115234 C 73.55066680908203 110.7224349975586 82.01348876953125 100.4899597167969 91.33678436279297 91.18831634521484 C 100.661491394043 81.88707733154297 110.9189071655273 73.44502258300781 121.8240203857422 66.09654998779297 C 132.8353729248047 58.67519760131836 144.6083679199219 52.30043411254883 156.8160247802734 47.14943313598633 C 169.245849609375 41.90478515625 182.2560272216797 37.87602233886719 195.4851989746094 35.17496490478516 C 209.0560760498047 32.40490341186523 223.0236053466797 31.00037574768066 236.9997253417969 31.00037574768066 M 252.0000152587891 395.9999084472656 C 255.7396697998047 395.9999084472656 259.2554321289062 394.5436096191406 261.8997192382812 391.8993835449219 C 264.5440368652344 389.2550659179688 266.0003051757812 385.7392578125 266.0003051757812 381.9996032714844 L 266.0003051757812 267.0003051757812 L 266.0003051757812 266.0003051757812 L 267.0003051757812 266.0003051757812 L 379.9998474121094 266.0003051757812 C 384.2735595703125 266.0003051757812 388.29150390625 264.3360290527344 391.3135375976562 261.31396484375 C 394.3356018066406 258.2919006347656 395.9999084472656 254.2739562988281 395.9999084472656 250.0001983642578 L 395.9999084472656 224.0000762939453 C 395.9999084472656 219.7263793945312 394.3356018066406 215.7084350585938 391.3135375976562 212.6863708496094 C 388.29150390625 209.6643218994141 384.2735595703125 208.0000152587891 379.9998474121094 208.0000152587891 L 267.0003051757812 208.0000152587891 L 266.0003051757812 208.0000152587891 L 266.0003051757812 207.0000152587891 L 266.0003051757812 90.99990081787109 C 266.0003051757812 87.26025390625 264.5440368652344 83.74449157714844 261.8997192382812 81.10019683837891 C 259.2554321289062 78.45590209960938 255.7396697998047 76.99961090087891 252.0000152587891 76.99961090087891 L 221.0004272460938 76.99961090087891 C 217.2607879638672 76.99961090087891 213.7449645996094 78.45590209960938 211.1006622314453 81.10019683837891 C 208.4563751220703 83.74449157714844 207.0000762939453 87.26025390625 207.0000762939453 90.99990081787109 L 207.0000762939453 207.0000152587891 L 207.0000762939453 208.0000152587891 L 206.0000762939453 208.0000152587891 L 92.99972534179688 208.0000152587891 C 88.72595977783203 208.0000152587891 84.70802307128906 209.6643218994141 81.68596649169922 212.6863708496094 C 78.66390228271484 215.7084350585938 76.99961090087891 219.7263793945312 76.99961090087891 224.0000762939453 L 76.99961090087891 250.0001983642578 C 76.99961090087891 254.2739562988281 78.66390228271484 258.2919006347656 81.68596649169922 261.31396484375 C 84.70802307128906 264.3360290527344 88.72595977783203 266.0003051757812 92.99972534179688 266.0003051757812 L 206.0000762939453 266.0003051757812 L 207.0000762939453 266.0003051757812 L 207.0000762939453 267.0003051757812 L 207.0000762939453 381.9996032714844 C 207.0000762939453 385.7392578125 208.4563751220703 389.2550659179688 211.1006622314453 391.8993835449219 C 213.7449645996094 394.5436096191406 217.2607879638672 395.9999084472656 221.0004272460938 395.9999084472656 L 252.0000152587891 395.9999084472656 M 236.5001983642578 473.0003662109375 C 220.4540863037109 473.0003662109375 204.4179077148438 471.384033203125 188.8370819091797 468.1953125 C 173.6523132324219 465.0885009765625 158.7167816162109 460.4517211914062 144.4437255859375 454.4154357910156 C 130.4297790527344 448.488037109375 116.9136123657227 441.1511840820312 104.2704315185547 432.6101989746094 C 91.74778747558594 424.1493225097656 79.9713134765625 414.4328918457031 69.26937103271484 403.7310180664062 C 58.5674934387207 393.0291442871094 48.85113906860352 381.2526245117188 40.39019775390625 368.7300109863281 C 31.84919929504395 356.0868530273438 24.5124340057373 342.5706176757812 18.58502197265625 328.5567321777344 C 12.54872798919678 314.2835998535156 7.911904335021973 299.34814453125 4.805080890655518 284.163330078125 C 1.616374850273132 268.5824890136719 2.189366932725534e-05 252.5463104248047 2.189366932725534e-05 236.5001983642578 C 2.189366932725534e-05 220.4540863037109 1.616374850273132 204.4179077148438 4.805080890655518 188.8370819091797 C 7.911904335021973 173.6523132324219 12.54872798919678 158.7167816162109 18.58502197265625 144.4437255859375 C 24.5124340057373 130.4297790527344 31.84919929504395 116.9136123657227 40.39019775390625 104.2704315185547 C 48.85113906860352 91.74778747558594 58.5674934387207 79.9713134765625 69.26937103271484 69.26937103271484 C 79.9713134765625 58.5674934387207 91.74778747558594 48.85113906860352 104.2704315185547 40.39019775390625 C 116.9136123657227 31.84919929504395 130.4297790527344 24.5124340057373 144.4437255859375 18.58502197265625 C 158.7167816162109 12.54872798919678 173.6523132324219 7.911904335021973 188.8370819091797 4.805080890655518 C 204.4179077148438 1.616374850273132 220.4540863037109 2.189366932725534e-05 236.5001983642578 2.189366932725534e-05 C 252.5463104248047 2.189366932725534e-05 268.5824890136719 1.616374850273132 284.163330078125 4.805080890655518 C 299.34814453125 7.911904335021973 314.2835998535156 12.54872798919678 328.5567321777344 18.58502197265625 C 342.5706176757812 24.5124340057373 356.0868530273438 31.84919929504395 368.7300109863281 40.39019775390625 C 381.2526245117188 48.85113906860352 393.0291442871094 58.5674934387207 403.7310180664062 69.26937103271484 C 414.4328918457031 79.9713134765625 424.1493225097656 91.74778747558594 432.6101989746094 104.2704315185547 C 441.1511840820312 116.9136123657227 448.488037109375 130.4297790527344 454.4154357910156 144.4437255859375 C 460.4517211914062 158.7167816162109 465.0885009765625 173.6523132324219 468.1953125 188.8370819091797 C 471.384033203125 204.4179077148438 473.0003662109375 220.4540863037109 473.0003662109375 236.5001983642578 C 473.0003662109375 252.5463104248047 471.384033203125 268.5824890136719 468.1953125 284.163330078125 C 465.0885009765625 299.34814453125 460.4517211914062 314.2835998535156 454.4154357910156 328.5567321777344 C 448.488037109375 342.5706176757812 441.1511840820312 356.0868530273438 432.6101989746094 368.7300109863281 C 424.1493225097656 381.2526245117188 414.4328918457031 393.0291442871094 403.7310180664062 403.7310180664062 C 393.0291442871094 414.4328918457031 381.2526245117188 424.1493225097656 368.7300109863281 432.6101989746094 C 356.0868530273438 441.1511840820312 342.5706176757812 448.488037109375 328.5567321777344 454.4154357910156 C 314.2835998535156 460.4517211914062 299.34814453125 465.0885009765625 284.163330078125 468.1953125 C 268.5824890136719 471.384033203125 252.5463104248047 473.0003662109375 236.5001983642578 473.0003662109375 Z M 236.9997253417969 32.00037384033203 C 223.0901947021484 32.00037384033203 209.1906127929688 33.39807891845703 195.6851959228516 36.15478515625 C 182.5227203369141 38.84219741821289 169.5762023925781 42.85078811645508 157.2047882080078 48.07078552246094 C 145.0574951171875 53.19631576538086 133.3421936035156 59.53949356079102 122.3829040527344 66.92578887939453 C 111.5270843505859 74.24102020263672 101.320198059082 82.64249420166016 92.04302215576172 91.89631652832031 C 82.76673126220703 101.1510238647461 74.34449005126953 111.333610534668 67.01131439208984 122.1623764038086 C 59.60702133178711 133.0947265625 53.24761199951172 144.7820739746094 48.11043548583984 156.8997344970703 C 42.87778472900391 169.2404937744141 38.85843276977539 182.1564331054688 36.16561126708984 195.2864990234375 C 33.40172958374023 208.7586059570312 32.00037384033203 222.6249084472656 32.00037384033203 236.5001983642578 C 32.00037384033203 250.37548828125 33.40172958374023 264.2418518066406 36.16561126708984 277.7138977050781 C 38.85843276977539 290.8440246582031 42.87778472900391 303.759033203125 48.11043548583984 316.1007385253906 C 53.24761199951172 328.2183227539062 59.60702133178711 339.9057312011719 67.01131439208984 350.8380126953125 C 74.34449005126953 361.6668395996094 82.76673126220703 371.849365234375 92.04302215576172 381.1032104492188 C 101.320198059082 390.3570251464844 111.5270843505859 398.7594299316406 122.3829040527344 406.0746154785156 C 133.3421936035156 413.4609069824219 145.0574951171875 419.8041381835938 157.2047882080078 424.9295959472656 C 169.5762023925781 430.1495971679688 182.5227203369141 434.158203125 195.6851959228516 436.8456115722656 C 209.1906127929688 439.6023254394531 223.0911407470703 441.0000305175781 236.9997253417969 441.0000305175781 C 250.9083099365234 441.0000305175781 264.8087768554688 439.6023254394531 278.314208984375 436.8456115722656 C 291.4767150878906 434.158203125 304.4231872558594 430.1495971679688 316.7946166992188 424.9295959472656 C 328.94189453125 419.8041381835938 340.6581420898438 413.4609069824219 351.617431640625 406.0746154785156 C 362.4723205566406 398.7584838867188 372.6801452636719 390.3570251464844 381.9564208984375 381.1032104492188 C 391.2327270507812 371.849365234375 399.6549072265625 361.6668395996094 406.989013671875 350.8380126953125 C 414.393310546875 339.9057312011719 420.7518005371094 328.2183227539062 425.889892578125 316.1007385253906 C 431.1224975585938 303.759033203125 435.1419067382812 290.8440246582031 437.834716796875 277.7138977050781 C 440.5986022949219 264.2418518066406 441.9999084472656 250.37548828125 441.9999084472656 236.5001983642578 C 441.9999084472656 222.6249084472656 440.5986022949219 208.7586059570312 437.834716796875 195.2864990234375 C 435.1419067382812 182.1564331054688 431.1224975585938 169.2404937744141 425.889892578125 156.8997344970703 C 420.7518005371094 144.7820739746094 414.393310546875 133.0947265625 406.989013671875 122.1623764038086 C 399.6549072265625 111.333610534668 391.2327270507812 101.1500778198242 381.9564208984375 91.89631652832031 C 372.6801452636719 82.64249420166016 362.4723205566406 74.24102020263672 351.617431640625 66.92578887939453 C 340.6581420898438 59.53949356079102 328.94189453125 53.19631576538086 316.7946166992188 48.07078552246094 C 304.4231872558594 42.85078811645508 291.4767150878906 38.84219741821289 278.314208984375 36.15478515625 C 264.8087768554688 33.39807891845703 250.9091949462891 32.00037384033203 236.9997253417969 32.00037384033203 Z M 252.0000152587891 396.9999084472656 L 221.0004272460938 396.9999084472656 C 212.7159118652344 396.9999084472656 206.0000762939453 390.2841491699219 206.0000762939453 381.9996032714844 L 206.0000762939453 267.0003051757812 L 92.99972534179688 267.0003051757812 C 83.61090087890625 267.0003051757812 75.99961090087891 259.3890075683594 75.99961090087891 250.0001983642578 L 75.99961090087891 224.0000762939453 C 75.99961090087891 214.6113128662109 83.61090087890625 207.0000152587891 92.99972534179688 207.0000152587891 L 206.0000762939453 207.0000152587891 L 206.0000762939453 90.99990081787109 C 206.0000762939453 82.71543121337891 212.7159118652344 75.99961090087891 221.0004272460938 75.99961090087891 L 252.0000152587891 75.99961090087891 C 260.2844848632812 75.99961090087891 267.0003051757812 82.71543121337891 267.0003051757812 90.99990081787109 L 267.0003051757812 207.0000152587891 L 379.9998474121094 207.0000152587891 C 389.3886108398438 207.0000152587891 396.9999084472656 214.6113128662109 396.9999084472656 224.0000762939453 L 396.9999084472656 250.0001983642578 C 396.9999084472656 259.3890075683594 389.3886108398438 267.0003051757812 379.9998474121094 267.0003051757812 L 267.0003051757812 267.0003051757812 L 267.0003051757812 381.9996032714844 C 267.0003051757812 390.2841491699219 260.2844848632812 396.9999084472656 252.0000152587891 396.9999084472656 Z" stroke="none" fill="#707070"/>
  </g>
</svg>
